<mxfile host="app.diagrams.net" modified="2024-01-29T07:59:07.383Z" agent="Mozilla/5.0 (Macintosh; Intel Mac OS X 10_15_7) AppleWebKit/537.36 (KHTML, like Gecko) Chrome/120.0.0.0 Safari/537.36" etag="ZQAo_gT7FndcR7glFxeW" version="23.0.2" type="github">
  <diagram name="第 1 页" id="Z9R9oAjIF5_AClmNVOrM">
    <mxGraphModel dx="1068" dy="740" grid="0" gridSize="10" guides="1" tooltips="1" connect="1" arrows="1" fold="1" page="1" pageScale="1" pageWidth="1654" pageHeight="2336" math="0" shadow="0">
      <root>
        <mxCell id="0" />
        <mxCell id="1" parent="0" />
        <mxCell id="Ql8w_hba-kZtEm8n0P-S-1" value="&lt;h2&gt;工具层&lt;/h2&gt;" style="rounded=0;whiteSpace=wrap;html=1;verticalAlign=top;fillColor=#008a00;fontColor=#ffffff;strokeColor=#005700;" vertex="1" parent="1">
          <mxGeometry x="374" y="81" width="587" height="123" as="geometry" />
        </mxCell>
        <mxCell id="Ql8w_hba-kZtEm8n0P-S-6" value="&lt;h2 style=&quot;text-align: justify;&quot;&gt;&lt;font style=&quot;font-size: 18px;&quot;&gt;管理后台&lt;/font&gt;&lt;/h2&gt;" style="rounded=0;whiteSpace=wrap;html=1;horizontal=1;verticalAlign=top;fillColor=#a20025;fontColor=#ffffff;strokeColor=#6F0000;" vertex="1" parent="1">
          <mxGeometry x="376" y="344" width="588" height="136" as="geometry" />
        </mxCell>
        <mxCell id="Ql8w_hba-kZtEm8n0P-S-7" value="用例库" style="rounded=0;whiteSpace=wrap;html=1;fillColor=#d80073;fontColor=#ffffff;strokeColor=#A50040;" vertex="1" parent="1">
          <mxGeometry x="404" y="406" width="105" height="61" as="geometry" />
        </mxCell>
        <mxCell id="Ql8w_hba-kZtEm8n0P-S-8" value="脚本库" style="rounded=0;whiteSpace=wrap;html=1;fillColor=#d80073;fontColor=#ffffff;strokeColor=#A50040;" vertex="1" parent="1">
          <mxGeometry x="547" y="406" width="105" height="61" as="geometry" />
        </mxCell>
        <mxCell id="Ql8w_hba-kZtEm8n0P-S-9" value="任务调度" style="rounded=0;whiteSpace=wrap;html=1;fillColor=#d80073;fontColor=#ffffff;strokeColor=#A50040;" vertex="1" parent="1">
          <mxGeometry x="690" y="406" width="105" height="61" as="geometry" />
        </mxCell>
        <mxCell id="Ql8w_hba-kZtEm8n0P-S-10" value="数据存储" style="rounded=0;whiteSpace=wrap;html=1;fillColor=#d80073;fontColor=#ffffff;strokeColor=#A50040;" vertex="1" parent="1">
          <mxGeometry x="828" y="406" width="105" height="61" as="geometry" />
        </mxCell>
        <mxCell id="Ql8w_hba-kZtEm8n0P-S-12" value="用例录制" style="rounded=0;whiteSpace=wrap;html=1;fillColor=#60a917;strokeColor=#2D7600;fontColor=#ffffff;" vertex="1" parent="1">
          <mxGeometry x="398" y="135" width="105" height="61" as="geometry" />
        </mxCell>
        <mxCell id="Ql8w_hba-kZtEm8n0P-S-13" value="批量运行" style="rounded=0;whiteSpace=wrap;html=1;fillColor=#60a917;strokeColor=#2D7600;fontColor=#ffffff;" vertex="1" parent="1">
          <mxGeometry x="543" y="135" width="105" height="61" as="geometry" />
        </mxCell>
        <mxCell id="Ql8w_hba-kZtEm8n0P-S-14" value="报告生成" style="rounded=0;whiteSpace=wrap;html=1;fillColor=#60a917;strokeColor=#2D7600;fontColor=#ffffff;" vertex="1" parent="1">
          <mxGeometry x="686" y="135" width="105" height="61" as="geometry" />
        </mxCell>
        <mxCell id="Ql8w_hba-kZtEm8n0P-S-15" value="&lt;h2 style=&quot;text-align: justify;&quot;&gt;&lt;font color=&quot;#ffffff&quot;&gt;Jenkins流水线&lt;/font&gt;&lt;/h2&gt;" style="rounded=0;whiteSpace=wrap;html=1;horizontal=1;verticalAlign=top;fillColor=#0050ef;fontColor=#ffffff;strokeColor=#001DBC;" vertex="1" parent="1">
          <mxGeometry x="376" y="494" width="591" height="136" as="geometry" />
        </mxCell>
        <mxCell id="Ql8w_hba-kZtEm8n0P-S-16" value="工具库" style="rounded=0;whiteSpace=wrap;html=1;fillColor=#60a917;strokeColor=#2D7600;fontColor=#ffffff;" vertex="1" parent="1">
          <mxGeometry x="823" y="135" width="105" height="61" as="geometry" />
        </mxCell>
        <mxCell id="Ql8w_hba-kZtEm8n0P-S-17" value="iOS真机管理" style="rounded=0;whiteSpace=wrap;html=1;fillColor=#1ba1e2;fontColor=#ffffff;strokeColor=#006EAF;" vertex="1" parent="1">
          <mxGeometry x="413" y="559" width="105" height="61" as="geometry" />
        </mxCell>
        <mxCell id="Ql8w_hba-kZtEm8n0P-S-18" value="Android真机管理" style="rounded=0;whiteSpace=wrap;html=1;fillColor=#1ba1e2;fontColor=#ffffff;strokeColor=#006EAF;" vertex="1" parent="1">
          <mxGeometry x="551" y="559" width="105" height="61" as="geometry" />
        </mxCell>
        <mxCell id="Ql8w_hba-kZtEm8n0P-S-19" value="用例执行" style="rounded=0;whiteSpace=wrap;html=1;fillColor=#1ba1e2;fontColor=#ffffff;strokeColor=#006EAF;" vertex="1" parent="1">
          <mxGeometry x="689" y="559" width="105" height="61" as="geometry" />
        </mxCell>
        <mxCell id="Ql8w_hba-kZtEm8n0P-S-20" value="报告上传" style="rounded=0;whiteSpace=wrap;html=1;fillColor=#1ba1e2;fontColor=#ffffff;strokeColor=#006EAF;" vertex="1" parent="1">
          <mxGeometry x="828" y="557" width="105" height="61" as="geometry" />
        </mxCell>
        <mxCell id="Ql8w_hba-kZtEm8n0P-S-21" value="&lt;h2&gt;App工厂前端&lt;/h2&gt;" style="rounded=0;whiteSpace=wrap;html=1;verticalAlign=top;fillColor=#76608a;fontColor=#ffffff;strokeColor=#432D57;" vertex="1" parent="1">
          <mxGeometry x="376" y="214" width="587" height="123" as="geometry" />
        </mxCell>
        <mxCell id="Ql8w_hba-kZtEm8n0P-S-22" value="用例管理" style="rounded=0;whiteSpace=wrap;html=1;fillColor=#fa6800;strokeColor=#C73500;fontColor=#FFFFFF;" vertex="1" parent="1">
          <mxGeometry x="398" y="269" width="105" height="61" as="geometry" />
        </mxCell>
        <mxCell id="Ql8w_hba-kZtEm8n0P-S-23" value="脚本管理" style="rounded=0;whiteSpace=wrap;html=1;fillColor=#fa6800;strokeColor=#C73500;fontColor=#FFFFFF;" vertex="1" parent="1">
          <mxGeometry x="543" y="269" width="105" height="61" as="geometry" />
        </mxCell>
        <mxCell id="Ql8w_hba-kZtEm8n0P-S-24" value="用例选配" style="rounded=0;whiteSpace=wrap;html=1;fillColor=#fa6800;strokeColor=#C73500;fontColor=#FFFFFF;" vertex="1" parent="1">
          <mxGeometry x="686" y="269" width="105" height="61" as="geometry" />
        </mxCell>
        <mxCell id="Ql8w_hba-kZtEm8n0P-S-25" value="报告展示" style="rounded=0;whiteSpace=wrap;html=1;fillColor=#fa6800;strokeColor=#C73500;fontColor=#FFFFFF;" vertex="1" parent="1">
          <mxGeometry x="823" y="269" width="105" height="61" as="geometry" />
        </mxCell>
      </root>
    </mxGraphModel>
  </diagram>
</mxfile>
